<svg xmlns="http://www.w3.org/2000/svg" width="36" height="31.496" viewBox="0 0 36 31.496">
    <path id="prefix__comment-lines" fill="#919191" d="M19.623 48.873H9.5a.564.564 0 0 0-.562.562v1.125a.564.564 0 0 0 .562.562h10.123a.564.564 0 0 0 .562-.562v-1.125a.564.564 0 0 0-.562-.562zm6.749-6.749H9.5a.564.564 0 0 0-.562.562v1.125a.564.564 0 0 0 .562.562h16.872a.564.564 0 0 0 .562-.562v-1.125a.564.564 0 0 0-.562-.562zM17.936 32c-9.941 0-18 6.545-18 14.623A12.924 12.924 0 0 0 3.657 55.5 17.84 17.84 0 0 1 .4 60.649 1.688 1.688 0 0 0 1.626 63.5a17.058 17.058 0 0 0 9.774-3.259 21.713 21.713 0 0 0 6.531 1.005c9.941 0 18-6.545 18-14.623S27.877 32 17.936 32zm0 27a19.391 19.391 0 0 1-5.849-.9l-1.069-.337-.914.647a15.17 15.17 0 0 1-7.213 2.78 18.966 18.966 0 0 0 2.868-4.89l.5-1.315-.959-1.029a10.626 10.626 0 0 1-3.107-7.333c0-6.819 7.065-12.373 15.748-12.373s15.743 5.55 15.743 12.373S26.618 59 17.936 59z" transform="translate(.066 -32)"/>
</svg>
